<svg xmlns="http://www.w3.org/2000/svg" viewBox="0 0 397 398" width="20" height="20"><path d="M396.07 215.04C391.41 274.67 357.95 331.14 308 364c-55.95 37.88-131.93 44.26-192.99 14.97C51.12 350.19 5.46 285.01.81 215.03c42.72-.06 85.43-.05 128.15-.01 6.62 26.44 27.44 48.88 53.94 56.08 10.87 2.52 22.24 2.45 33.27 1.14 15.24-3.58 29.62-11.24 40.54-22.52 9.18-9.61 15.3-21.85 18.67-34.63 40.23-.2 80.46-.09 120.69-.05m-155.91-34.15c7.01 14.48 4.91 33.22-6.12 45.14-11.94 14.39-34.44 19.06-50.77 9.64-13.3-6.53-22.48-20.77-22.33-35.66-1.8-20.62 15.04-40.38 35.48-42.51 17.6-2.94 36.36 7.18 43.74 23.39m27.76-167.85c58.2 21.52 104.78 72.03 121.03 131.97 2.974 10.139 4.635 20.56 6.252 30.979l.462 2.976q.231 1.488.466 2.975c-40.36.12-80.72.08-121.08.03-5.25-19.06-16.96-36.62-34.12-46.88-24.15-15.57-57.39-14.56-80.71 2.13-15.72 10.12-25.7 26.93-30.73 44.61-42.91.37-85.83.12-128.74.14C4.78 122.18 39.21 65.9 89.03 33.06 140.93-1.45 209.7-9.75 267.92 13.04"/></svg>